<svg id="SvgjsSvg1001" width="288" height="288" xmlns="http://www.w3.org/2000/svg" version="1.1" xmlns:xlink="http://www.w3.org/1999/xlink" xmlns:svgjs="http://svgjs.com/svgjs"><defs id="SvgjsDefs1002"></defs><g id="SvgjsG1008"><svg xmlns="http://www.w3.org/2000/svg" width="288" height="288"><path d="M11.3 40q-1.4 0-2.35-.95Q8 38.1 8 36.7q0-1.4.95-2.35.95-.95 2.35-.95 1.4 0 2.35.95.95.95.95 2.35 0 1.4-.95 2.35-.95.95-2.35.95ZM24 40q-1.4 0-2.35-.95-.95-.95-.95-2.35 0-1.4.95-2.35.95-.95 2.35-.95 1.4 0 2.35.95.95.95.95 2.35 0 1.4-.95 2.35Q25.4 40 24 40Zm12.7 0q-1.4 0-2.35-.95-.95-.95-.95-2.35 0-1.4.95-2.35.95-.95 2.35-.95 1.4 0 2.35.95.95.95.95 2.35 0 1.4-.95 2.35-.95.95-2.35.95ZM11.3 27.3q-1.4 0-2.35-.95Q8 25.4 8 24q0-1.4.95-2.35.95-.95 2.35-.95 1.4 0 2.35.95.95.95.95 2.35 0 1.4-.95 2.35-.95.95-2.35.95Zm12.7 0q-1.4 0-2.35-.95-.95-.95-.95-2.35 0-1.4.95-2.35.95-.95 2.35-.95 1.4 0 2.35.95.95.95.95 2.35 0 1.4-.95 2.35-.95.95-2.35.95Zm12.7 0q-1.4 0-2.35-.95-.95-.95-.95-2.35 0-1.4.95-2.35.95-.95 2.35-.95 1.4 0 2.35.95.95.95.95 2.35 0 1.4-.95 2.35-.95.95-2.35.95ZM11.3 14.6q-1.4 0-2.35-.95Q8 12.7 8 11.3q0-1.4.95-2.35Q9.9 8 11.3 8q1.4 0 2.35.95.95.95.95 2.35 0 1.4-.95 2.35-.95.95-2.35.95Zm12.7 0q-1.4 0-2.35-.95-.95-.95-.95-2.35 0-1.4.95-2.35Q22.6 8 24 8q1.4 0 2.35.95.95.95.95 2.35 0 1.4-.95 2.35-.95.95-2.35.95Zm12.7 0q-1.4 0-2.35-.95-.95-.95-.95-2.35 0-1.4.95-2.35Q35.3 8 36.7 8q1.4 0 2.35.95.95.95.95 2.35 0 1.4-.95 2.35-.95.95-2.35.95Z" fill="#ffffff" class="color000 svgShape"></path></svg></g></svg>